<svg width="18" height="22" viewBox="0 0 18 22" fill="none" xmlns="http://www.w3.org/2000/svg">
<path fill-rule="evenodd" clip-rule="evenodd" d="M13 11C13 10.8011 12.921 10.6103 12.7803 10.4697C12.6397 10.329 12.4489 10.25 12.25 10.25L3.5605 10.25L6.781 7.031C6.92183 6.89017 7.00095 6.69916 7.00095 6.5C7.00095 6.30084 6.92183 6.10983 6.781 5.969C6.64017 5.82817 6.44916 5.74905 6.25 5.74905C6.05084 5.74905 5.85983 5.82817 5.719 5.969L1.219 10.469C1.14915 10.5387 1.09374 10.6214 1.05593 10.7126C1.01812 10.8037 0.998659 10.9013 0.998659 11C0.998659 11.0987 1.01812 11.1963 1.05593 11.2875C1.09374 11.3786 1.14915 11.4613 1.219 11.531L5.719 16.031C5.85983 16.1718 6.05084 16.2509 6.25 16.2509C6.44916 16.2509 6.64017 16.1718 6.781 16.031C6.92183 15.8902 7.00095 15.6992 7.00095 15.5C7.00095 15.3008 6.92183 15.1098 6.781 14.969L3.5605 11.75L12.25 11.75C12.4489 11.75 12.6397 11.671 12.7803 11.5303C12.921 11.3897 13 11.1989 13 11ZM16.75 0.5C16.9489 0.5 17.1397 0.579018 17.2803 0.719669C17.421 0.860321 17.5 1.05109 17.5 1.25L17.5 20.75C17.5 20.9489 17.421 21.1397 17.2803 21.2803C17.1397 21.421 16.9489 21.5 16.75 21.5C16.5511 21.5 16.3603 21.421 16.2197 21.2803C16.079 21.1397 16 20.9489 16 20.75L16 1.25C16 1.05109 16.079 0.860321 16.2197 0.719669C16.3603 0.579018 16.5511 0.5 16.75 0.5Z" fill="white"/>
</svg>
