<svg width="17" height="22" viewBox="0 0 17 22" fill="none" xmlns="http://www.w3.org/2000/svg">
<path fill-rule="evenodd" clip-rule="evenodd" d="M5 11C5 11.1989 5.07902 11.3897 5.21967 11.5303C5.36032 11.671 5.55109 11.75 5.75 11.75H14.4395L11.219 14.969C11.0782 15.1098 10.9991 15.3008 10.9991 15.5C10.9991 15.6992 11.0782 15.8902 11.219 16.031C11.3598 16.1718 11.5508 16.2509 11.75 16.2509C11.9492 16.2509 12.1402 16.1718 12.281 16.031L16.781 11.531C16.8508 11.4613 16.9063 11.3786 16.9441 11.2874C16.9819 11.1963 17.0013 11.0987 17.0013 11C17.0013 10.9013 16.9819 10.8037 16.9441 10.7125C16.9063 10.6214 16.8508 10.5387 16.781 10.469L12.281 5.969C12.1402 5.82817 11.9492 5.74905 11.75 5.74905C11.5508 5.74905 11.3598 5.82817 11.219 5.969C11.0782 6.10983 10.9991 6.30084 10.9991 6.5C10.9991 6.69916 11.0782 6.89017 11.219 7.031L14.4395 10.25H5.75C5.55109 10.25 5.36032 10.329 5.21967 10.4697C5.07902 10.6103 5 10.8011 5 11ZM1.25 21.5C1.05109 21.5 0.860322 21.421 0.71967 21.2803C0.579018 21.1397 0.5 20.9489 0.5 20.75V1.25C0.5 1.05109 0.579018 0.860322 0.71967 0.71967C0.860322 0.579018 1.05109 0.5 1.25 0.5C1.44891 0.5 1.63968 0.579018 1.78033 0.71967C1.92098 0.860322 2 1.05109 2 1.25V20.75C2 20.9489 1.92098 21.1397 1.78033 21.2803C1.63968 21.421 1.44891 21.5 1.25 21.5Z" fill="white"/>
</svg>
