<svg width="150" height="140" viewBox="0 0 150 140" fill="none" xmlns="http://www.w3.org/2000/svg">
<path fill-rule="evenodd" clip-rule="evenodd" d="M90.0673 84.1167C90.0673 84.457 89.932 84.7835 89.6914 85.0241C89.4507 85.2648 89.1243 85.4 88.7839 85.4H73.3839C73.0436 85.4 72.7171 85.2648 72.4765 85.0241C72.2358 84.7835 72.1006 84.457 72.1006 84.1167C72.1006 83.7763 72.2358 83.4499 72.4765 83.2092C72.7171 82.9686 73.0436 82.8333 73.3839 82.8333H85.6859L59.642 56.7919C59.5227 56.6726 59.428 56.531 59.3634 56.3751C59.2989 56.2192 59.2656 56.0521 59.2656 55.8833C59.2656 55.7146 59.2989 55.5475 59.3634 55.3916C59.428 55.2357 59.5227 55.0941 59.642 54.9747C59.7613 54.8554 59.903 54.7608 60.0588 54.6962C60.2147 54.6316 60.3818 54.5984 60.5506 54.5984C60.7193 54.5984 60.8864 54.6316 61.0423 54.6962C61.1982 54.7608 61.3399 54.8554 61.4592 54.9747L87.5006 81.0187V68.7167C87.5006 68.3763 87.6358 68.0499 87.8765 67.8092C88.1171 67.5686 88.4436 67.4333 88.7839 67.4333C89.1243 67.4333 89.4507 67.5686 89.6914 67.8092C89.932 68.0499 90.0673 68.3763 90.0673 68.7167V84.1167Z" fill="white"/>
<path d="M46.1467 113.461L47.3164 114.381L42.9549 119.928L41.213 130.801L39.9113 129.778L41.4206 120.675L32.9498 124.303L31.6292 123.265L41.7852 119.008L46.1467 113.461Z" fill="white"/>
<path d="M26.2906 99.6756C24.1614 100.421 22.527 100.595 21.3875 100.198C20.2427 99.7847 19.3689 98.7176 18.766 96.9961C18.1579 95.2595 18.175 93.8803 18.8174 92.8586C19.4545 91.8217 20.8376 90.9305 22.9668 90.1848C25.096 89.4391 26.73 89.2399 27.8687 89.587C29.0022 89.919 29.8915 91.0062 30.5367 92.8485C31.1819 94.6908 31.1678 96.1028 30.4944 97.0845C29.8211 98.0663 28.4198 98.93 26.2906 99.6756ZM25.7761 98.2792C27.558 97.6552 28.7249 97.0176 29.2767 96.3667C29.8082 95.7059 29.8306 94.6808 29.3441 93.2916C28.8523 91.8872 28.185 91.0952 27.3423 90.9157C26.4996 90.7361 25.1948 90.9557 23.4281 91.5745C21.6462 92.1985 20.5152 92.8658 20.0351 93.5764C19.5346 94.2773 19.5091 95.2694 19.9586 96.553C20.4081 97.8366 21.0422 98.6063 21.8607 98.8621C22.674 99.1028 23.9791 98.9085 25.7761 98.2792Z" fill="white"/>
<path d="M16.8669 64.9993C16.4642 66.8438 16.9272 67.9111 18.2559 68.2012C18.8655 68.3343 19.3398 68.2249 19.6786 67.8731C20.0174 67.5213 20.4672 66.6614 21.0278 65.2935C21.5763 63.9066 22.1247 62.97 22.673 62.4838C23.2247 61.9819 24.1024 61.8624 25.3061 62.1251C26.4941 62.3845 27.2859 62.9586 27.6814 63.8474C28.0613 64.7328 28.0891 65.918 27.7649 67.403C27.5773 68.2628 27.2255 69.3488 26.7098 70.6609L26.4675 71.3205L25.2453 70.9554C25.8932 69.2626 26.3196 67.9473 26.5244 67.0094C26.7291 66.0715 26.7237 65.3087 26.508 64.7212C26.2958 64.1181 25.7989 63.7312 25.0173 63.5606C24.2357 63.3899 23.6721 63.4962 23.3264 63.8793C22.9685 64.2433 22.5249 65.1127 21.9955 66.4874C21.4695 67.8465 20.9402 68.7709 20.4075 69.2605C19.8748 69.7502 19.0457 69.8721 17.9202 69.6264C16.7947 69.3807 16.061 68.8029 15.7192 67.8931C15.3774 66.9832 15.3345 65.9421 15.5904 64.7697C15.7952 63.8318 16.1528 62.6816 16.6631 61.3191L16.8951 60.7065L18.1276 61.0247C17.5123 62.6427 17.0921 63.9676 16.8669 64.9993Z" fill="white"/>
<path d="M30.1766 36.9354C28.8884 38.3156 28.7413 39.4696 29.7355 40.3976C30.1917 40.8234 30.6552 40.9716 31.1262 40.8422C31.5972 40.7128 32.4231 40.2032 33.6037 39.3135C34.7836 38.4012 35.7334 37.8761 36.4531 37.7381C37.1838 37.5884 37.9995 37.9339 38.9001 38.7746C39.789 39.6043 40.1765 40.5022 40.0626 41.4684C39.937 42.4236 39.3556 43.4568 38.3185 44.568C37.718 45.2113 36.861 45.9653 35.7474 46.83L35.2023 47.2733L34.3379 46.3352C35.7596 45.2108 36.7979 44.2977 37.4529 43.5959C38.108 42.8942 38.4929 42.2356 38.6075 41.6204C38.7331 40.9934 38.5035 40.407 37.9187 39.8611C37.3338 39.3153 36.795 39.1187 36.3022 39.2715C35.8086 39.4018 34.9831 39.9226 33.8259 40.8341C32.6795 41.734 31.7523 42.2583 31.0443 42.4072C30.3362 42.5561 29.5611 42.2376 28.719 41.4515C27.8768 40.6654 27.5412 39.794 27.712 38.8372C27.8828 37.8804 28.3777 36.9634 29.1965 36.0861C29.8515 35.3844 30.7464 34.5781 31.881 33.6674L32.3934 33.2592L33.2905 34.1622C31.9351 35.239 30.8972 36.1634 30.1766 36.9354Z" fill="white"/>
<path d="M55.0629 31.6669L50.6299 20.5157L51.9457 19.9926L56.3787 31.1438L55.0629 31.6669ZM49.5217 17.7279L48.8567 16.0553L50.1726 15.5322L50.8375 17.2048L49.5217 17.7279Z" fill="white"/>
<path d="M73.6455 27.2171L72.1642 27.0765L73.7396 10.4711L75.221 10.6116L74.4775 18.4484L77.3514 18.6488L82.6994 11.3212L84.3958 11.4821L78.5872 19.3446L83.1309 28.117L81.3629 27.9493L77.2483 19.989L74.3528 19.7625L73.6455 27.2171Z" fill="white"/>
<path d="M102.742 28.9023C104.157 27.1452 105.454 26.1348 106.631 25.8712C107.822 25.6176 109.127 26.0628 110.548 27.2068C111.981 28.3608 112.694 29.5412 112.688 30.7481C112.694 31.9651 111.99 33.4521 110.575 35.2092C109.16 36.9664 107.877 37.998 106.727 38.3042C105.589 38.6204 104.26 38.1664 102.739 36.9422C101.219 35.7179 100.486 34.5112 100.539 33.3219C100.593 32.1327 101.327 30.6595 102.742 28.9023ZM103.916 29.8169C102.732 31.2874 102.078 32.4447 101.952 33.2889C101.85 34.1307 102.372 35.0132 103.518 35.9364C104.677 36.8696 105.662 37.1901 106.473 36.8978C107.283 36.6056 108.275 35.7304 109.449 34.2724C110.634 32.8018 111.242 31.6381 111.275 30.7811C111.33 29.9217 110.828 29.0655 109.769 28.2126C108.709 27.3596 107.765 27.0405 106.934 27.2552C106.117 27.48 105.111 28.3339 103.916 29.8169Z" fill="white"/>
<path d="M129.441 54.97L127.923 51.2605L122.437 53.5053C121.001 54.093 120.103 54.5814 119.743 54.9705C119.384 55.3595 119.362 55.9391 119.677 56.7091L120.668 58.6891L119.572 59.2415C119.024 58.3247 118.644 57.6071 118.432 57.0888C117.971 55.9634 117.924 55.0665 118.29 54.398C118.677 53.7384 119.656 53.0874 121.225 52.4452L127.378 49.9277L126.706 48.284L127.883 47.8023L128.555 49.4461L132.043 48.0192L132.588 49.352L129.101 50.7788L130.618 54.4884L129.441 54.97Z" fill="white"/>
<path d="M122.301 73.5295L139.628 73.6296L139.62 75.0456L122.293 74.9455L122.301 73.5295Z" fill="white"/>
<path d="M117.756 98.2078L117.499 98.8841L116.425 98.4018C117.032 96.6841 117.614 95.267 118.172 94.1504C118.958 92.6114 119.955 91.7593 121.164 91.5939C122.374 91.4285 123.916 91.8139 125.791 92.75C129.542 94.6223 130.681 97.0329 129.209 99.9819C128.502 101.399 127.565 102.255 126.399 102.549C125.247 102.85 123.783 102.558 122.008 101.672L120.999 101.114L124.643 93.8134C123.326 93.1559 122.235 92.8883 121.369 93.0105C120.511 93.1542 119.81 93.77 119.267 94.858C118.717 95.9603 118.213 97.0769 117.756 98.2078ZM125.717 94.3493L122.694 100.405C124.112 101.112 125.239 101.38 126.076 101.208C126.906 101.05 127.578 100.455 128.092 99.4245C128.6 98.4081 128.671 97.4778 128.305 96.6337C127.954 95.7968 127.091 95.0353 125.717 94.3493Z" fill="white"/>
<path d="M104.987 112.169L111.795 122.051L110.629 122.854L109.649 121.431C109.397 122.11 109.031 122.848 108.551 123.645C108.057 124.451 107.551 125.112 107.03 125.625L106.213 124.44C106.698 123.931 107.164 123.338 107.611 122.661C108.067 121.997 108.402 121.455 108.618 121.034L108.927 120.384L103.821 112.973L104.987 112.169Z" fill="white"/>
</svg>
