<svg width="320" height="300" viewBox="0 0 320 300" fill="none" xmlns="http://www.w3.org/2000/svg">
<path fill-rule="evenodd" clip-rule="evenodd" d="M193 180.25C193 180.979 192.71 181.679 192.195 182.195C191.679 182.71 190.979 183 190.25 183H157.25C156.521 183 155.821 182.71 155.306 182.195C154.79 181.679 154.5 180.979 154.5 180.25C154.5 179.521 154.79 178.821 155.306 178.306C155.821 177.79 156.521 177.5 157.25 177.5H183.612L127.803 121.697C127.547 121.441 127.345 121.138 127.206 120.804C127.068 120.47 126.997 120.112 126.997 119.75C126.997 119.388 127.068 119.03 127.206 118.696C127.345 118.362 127.547 118.059 127.803 117.803C128.059 117.547 128.362 117.345 128.696 117.206C129.03 117.068 129.388 116.997 129.75 116.997C130.112 116.997 130.47 117.068 130.804 117.206C131.138 117.345 131.441 117.547 131.697 117.803L187.5 173.612V147.25C187.5 146.521 187.79 145.821 188.306 145.306C188.821 144.79 189.521 144.5 190.25 144.5C190.979 144.5 191.679 144.79 192.195 145.306C192.71 145.821 193 146.521 193 147.25V180.25Z" fill="white"/>
<path d="M86.2366 272.44L87.4063 273.36L83.0447 278.906L81.3028 289.78L80.0011 288.756L81.5104 279.654L73.0396 283.282L71.719 282.244L81.875 277.987L86.2366 272.44Z" fill="white"/>
<path d="M34.2022 222.912C32.073 223.658 30.4387 223.832 29.2992 223.434C28.1544 223.021 27.2805 221.954 26.6777 220.233C26.0695 218.496 26.0866 217.117 26.729 216.095C27.3661 215.058 28.7492 214.167 30.8784 213.421C33.0076 212.676 34.6416 212.476 35.7804 212.823C36.9138 213.155 37.8031 214.243 38.4483 216.085C39.0935 217.927 39.0794 219.339 38.4061 220.321C37.7327 221.303 36.3314 222.166 34.2022 222.912ZM33.6877 221.516C35.4696 220.892 36.6365 220.254 37.1883 219.603C37.7198 218.942 37.7423 217.917 37.2557 216.528C36.7639 215.124 36.0966 214.332 35.2539 214.152C34.4112 213.973 33.1065 214.192 31.3397 214.811C29.5578 215.435 28.4268 216.102 27.9467 216.813C27.4462 217.514 27.4207 218.506 27.8702 219.789C28.3197 221.073 28.9538 221.843 29.7723 222.099C30.5856 222.339 31.8908 222.145 33.6877 221.516Z" fill="white"/>
<path d="M16.8669 141.421C16.4642 143.265 16.9272 144.333 18.2559 144.623C18.8655 144.756 19.3398 144.646 19.6786 144.295C20.0174 143.943 20.4672 143.083 21.0278 141.715C21.5763 140.328 22.1247 139.392 22.673 138.905C23.2247 138.403 24.1024 138.284 25.3061 138.547C26.4941 138.806 27.2859 139.38 27.6814 140.269C28.0613 141.154 28.0891 142.34 27.7649 143.825C27.5773 144.684 27.2255 145.77 26.7098 147.082L26.4675 147.742L25.2453 147.377C25.8932 145.684 26.3196 144.369 26.5244 143.431C26.7291 142.493 26.7237 141.73 26.508 141.143C26.2958 140.54 25.7989 140.153 25.0173 139.982C24.2357 139.811 23.6721 139.918 23.3264 140.301C22.9685 140.665 22.5249 141.534 21.9955 142.909C21.4695 144.268 20.9402 145.192 20.4075 145.682C19.8748 146.172 19.0457 146.294 17.9202 146.048C16.7947 145.802 16.061 145.224 15.7192 144.315C15.3774 143.405 15.3345 142.364 15.5904 141.191C15.7952 140.253 16.1528 139.103 16.6631 137.741L16.8951 137.128L18.1276 137.446C17.5123 139.064 17.0921 140.389 16.8669 141.421Z" fill="white"/>
<path d="M46.9989 71.1392C45.7106 72.5194 45.5636 73.6735 46.5578 74.6015C47.0139 75.0273 47.4775 75.1755 47.9485 75.0461C48.4195 74.9166 49.2453 74.4071 50.426 73.5174C51.6058 72.6051 52.5557 72.0799 53.2754 71.942C54.0061 71.7923 54.8217 72.1378 55.7223 72.9784C56.6113 73.8082 56.9988 74.7061 56.8849 75.6723C56.7593 76.6275 56.1779 77.6607 55.1407 78.7719C54.5403 79.4152 53.6832 80.1692 52.5697 81.0339L52.0246 81.4772L51.1602 80.5391C52.5818 79.4147 53.6202 78.5016 54.2752 77.7998C54.9303 77.098 55.3151 76.4395 55.4298 75.8242C55.5554 75.1973 55.3257 74.6109 54.7409 74.065C54.1561 73.5191 53.6173 73.3226 53.1244 73.4754C52.6308 73.6056 51.8054 74.1265 50.6481 75.038C49.5018 75.9378 48.5746 76.4622 47.8665 76.6111C47.1585 76.76 46.3834 76.4414 45.5413 75.6553C44.6991 74.8693 44.3635 73.9978 44.5343 73.041C44.7051 72.0842 45.1999 71.1672 46.0187 70.29C46.6738 69.5882 47.5686 68.782 48.7033 67.8712L49.2156 67.463L50.1127 68.3661C48.7574 69.4429 47.7195 70.3673 46.9989 71.1392Z" fill="white"/>
<path d="M104.682 39.943L100.249 28.7919L101.565 28.2688L105.998 39.4199L104.682 39.943ZM99.1408 26.0041L98.4759 24.3314L99.7917 23.8083L100.457 25.481L99.1408 26.0041Z" fill="white"/>
<path d="M156.659 27.2171L155.177 27.0765L156.753 10.4711L158.234 10.6116L157.491 18.4484L160.365 18.6488L165.713 11.3212L167.409 11.4821L161.6 19.3446L166.144 28.117L164.376 27.9493L160.262 19.989L157.366 19.7625L156.659 27.2171Z" fill="white"/>
<path d="M234.045 42.3329C235.46 40.5757 236.756 39.5653 237.934 39.3017C239.124 39.0481 240.43 39.4933 241.85 40.6373C243.284 41.7913 243.997 42.9718 243.991 44.1787C243.997 45.3956 243.292 46.8826 241.877 48.6398C240.463 50.3969 239.18 51.4286 238.029 51.7348C236.891 52.051 235.562 51.597 234.042 50.3727C232.522 49.1485 231.788 47.9417 231.842 46.7525C231.896 45.5632 232.63 44.09 234.045 42.3329ZM235.219 43.2474C234.035 44.7179 233.38 45.8753 233.255 46.7195C233.153 47.5612 233.675 48.4437 234.821 49.3669C235.98 50.3002 236.965 50.6207 237.775 50.3284C238.586 50.0361 239.578 49.161 240.752 47.7029C241.936 46.2324 242.545 45.0686 242.577 44.2117C242.633 43.3522 242.131 42.4961 241.071 41.6431C240.012 40.7901 239.067 40.471 238.237 40.6858C237.419 40.9106 236.413 41.7644 235.219 43.2474Z" fill="white"/>
<path d="M291.179 102.424L289.662 98.7148L284.175 100.96C282.739 101.547 281.841 102.036 281.481 102.425C281.122 102.814 281.1 103.393 281.415 104.163L282.406 106.143L281.31 106.696C280.762 105.779 280.382 105.061 280.17 104.543C279.709 103.418 279.662 102.521 280.028 101.852C280.415 101.193 281.394 100.542 282.964 99.8995L289.116 97.3821L288.444 95.7383L289.621 95.2567L290.294 96.9004L293.781 95.4736L294.326 96.8063L290.839 98.2332L292.357 101.943L291.179 102.424Z" fill="white"/>
<path d="M292.944 155.52L310.272 155.62L310.264 157.036L292.936 156.936L292.944 155.52Z" fill="white"/>
<path d="M283.688 213.65L283.431 214.327L282.358 213.844C282.965 212.127 283.547 210.71 284.104 209.593C284.89 208.054 285.888 207.202 287.097 207.037C288.306 206.871 289.848 207.257 291.724 208.193C295.474 210.065 296.614 212.476 295.142 215.425C294.434 216.842 293.497 217.697 292.331 217.992C291.18 218.293 289.716 218 287.941 217.114L286.932 216.557L290.576 209.256C289.259 208.599 288.168 208.331 287.302 208.453C286.443 208.597 285.743 209.213 285.199 210.301C284.649 211.403 284.145 212.52 283.688 213.65ZM291.65 209.792L288.627 215.847C290.044 216.555 291.171 216.822 292.008 216.65C292.838 216.492 293.511 215.898 294.025 214.867C294.532 213.851 294.603 212.92 294.238 212.076C293.887 211.239 293.024 210.478 291.65 209.792Z" fill="white"/>
<path d="M244.172 264.605L250.981 274.487L249.815 275.29L248.834 273.867C248.583 274.546 248.217 275.284 247.737 276.081C247.243 276.887 246.736 277.548 246.216 278.062L245.399 276.876C245.884 276.367 246.349 275.774 246.796 275.097C247.252 274.433 247.588 273.891 247.803 273.47L248.113 272.82L243.006 265.409L244.172 264.605Z" fill="white"/>
</svg>
