<svg width="24" height="24" viewBox="0 0 24 24" fill="none" xmlns="http://www.w3.org/2000/svg">
<path d="M18.5987 8.40001C19.3602 8.39987 20.0932 8.6893 20.6492 9.20962C21.2052 9.72994 21.5425 10.4422 21.5927 11.202L21.5987 11.3988V12.3072C20.3327 11.2618 18.7225 10.7257 17.0824 10.8038C15.4424 10.8819 13.8904 11.5684 12.7294 12.7294C11.5684 13.8904 10.8818 15.4425 10.8037 17.0825C10.7257 18.7225 11.2617 20.3328 12.3071 21.5988H11.3999C10.6383 21.5989 9.9051 21.3093 9.34909 20.7888C8.79309 20.2682 8.45591 19.5556 8.40595 18.7956L8.39995 18.6V11.4C8.39983 10.6383 8.68943 9.90516 9.21 9.34916C9.73057 8.79316 10.4431 8.45598 11.2031 8.40601L11.3987 8.40001H18.5987ZM15.1919 4.43161L15.2495 4.62121L15.9395 7.19761H10.7987C9.8805 7.19756 8.99693 7.5484 8.32884 8.17835C7.66074 8.8083 7.25862 9.66974 7.20475 10.5864L7.19995 10.7988V17.2164C6.58696 17.2031 5.99275 17.0024 5.4972 16.6414C5.00164 16.2803 4.6285 15.7762 4.42795 15.1968L4.36555 14.9928L2.50195 8.03881C2.30452 7.30316 2.39431 6.51996 2.75309 5.84808C3.11187 5.17619 3.71279 4.66594 4.43395 4.42081L4.62355 4.36441L11.5775 2.50081C12.2806 2.31234 13.0282 2.38591 13.681 2.7078C14.3339 3.02969 14.8474 3.57795 15.1259 4.25041L15.1943 4.43281L15.1919 4.43161ZM22.7987 17.4C22.7987 18.8322 22.2298 20.2057 21.2171 21.2184C20.2044 22.2311 18.8309 22.8 17.3987 22.8C15.9666 22.8 14.5931 22.2311 13.5804 21.2184C12.5677 20.2057 11.9987 18.8322 11.9987 17.4C11.9987 15.9678 12.5677 14.5943 13.5804 13.5816C14.5931 12.5689 15.9666 12 17.3987 12C18.8309 12 20.2044 12.5689 21.2171 13.5816C22.2298 14.5943 22.7987 15.9678 22.7987 17.4ZM17.9987 15C17.9987 14.8409 17.9355 14.6883 17.823 14.5757C17.7105 14.4632 17.5579 14.4 17.3987 14.4C17.2396 14.4 17.087 14.4632 16.9745 14.5757C16.862 14.6883 16.7987 14.8409 16.7987 15V16.8H14.9987C14.8396 16.8 14.687 16.8632 14.5745 16.9757C14.462 17.0883 14.3987 17.2409 14.3987 17.4C14.3987 17.5591 14.462 17.7118 14.5745 17.8243C14.687 17.9368 14.8396 18 14.9987 18H16.7999V19.8C16.7999 19.9591 16.8632 20.1118 16.9757 20.2243C17.0882 20.3368 17.2408 20.4 17.3999 20.4C17.5591 20.4 17.7117 20.3368 17.8242 20.2243C17.9367 20.1118 17.9999 19.9591 17.9999 19.8V18H19.7999C19.9591 18 20.1117 17.9368 20.2242 17.8243C20.3367 17.7118 20.4 17.5591 20.4 17.4C20.4 17.2409 20.3367 17.0883 20.2242 16.9757C20.1117 16.8632 19.9591 16.8 19.7999 16.8H17.9999V15H17.9987Z" fill="white"/>
</svg>
