<svg width="4" height="89" viewBox="0 0 4 89" fill="none" xmlns="http://www.w3.org/2000/svg">
<path d="M1.47473 4.86922L1.46895 5.8692L3.46891 5.88076L3.47469 4.88078L1.47473 4.86922ZM3.42412 13.6308L3.4299 12.6308L1.42993 12.6192L1.42415 13.6192L3.42412 13.6308ZM1.37357 22.3692L1.36779 23.3692L3.36776 23.3808L3.37354 22.3808L1.37357 22.3692ZM3.32296 31.1308L3.32874 30.1308L1.32877 30.1192L1.32299 31.1192L3.32296 31.1308ZM1.27242 39.8692L1.26664 40.8692L3.2666 40.8808L3.27238 39.8808L1.27242 39.8692ZM3.2218 48.6308L3.22758 47.6308L1.22762 47.6192L1.22184 48.6192L3.2218 48.6308ZM1.17126 57.3692L1.16548 58.3692L3.16545 58.3807L3.17123 57.3808L1.17126 57.3692ZM3.12065 66.1308L3.12643 65.1308L1.12646 65.1192L1.12068 66.1192L3.12065 66.1308ZM1.0701 74.8692L1.06432 75.8692L3.06429 75.8807L3.07007 74.8808L1.0701 74.8692ZM3.01949 83.6308L3.02527 82.6308L1.02531 82.6192L1.01953 83.6192L3.01949 83.6308ZM1.50002 0.49422L1.47473 4.86922L3.47469 4.88078L3.49998 0.50578L1.50002 0.49422ZM1.42415 13.6192L1.37357 22.3692L3.37354 22.3808L3.42412 13.6308L1.42415 13.6192ZM1.32299 31.1192L1.27242 39.8692L3.27238 39.8808L3.32296 31.1308L1.32299 31.1192ZM1.22184 48.6192L1.17126 57.3692L3.17123 57.3808L3.2218 48.6308L1.22184 48.6192ZM1.12068 66.1192L1.0701 74.8692L3.07007 74.8808L3.12065 66.1308L1.12068 66.1192ZM1.01953 83.6192L0.994237 87.9942L2.9942 88.0057L3.01949 83.6308L1.01953 83.6192Z" fill="url(#paint0_linear_340_402)"/>
<defs>
<linearGradient id="paint0_linear_340_402" x1="2.99999" y1="0.50289" x2="2.49421" y2="88.0029" gradientUnits="userSpaceOnUse">
<stop offset="0.469273" stop-color="#DC47CD"/>
<stop offset="0.536983" stop-color="#FA7D09"/>
</linearGradient>
</defs>
</svg>
