<svg width="54" height="136" viewBox="0 0 54 136" fill="none" xmlns="http://www.w3.org/2000/svg">
<path d="M49.9167 0H48.9167V2H49.9167V0ZM41.75 2H42.75V0H41.75V2ZM33.5833 0H32.5833V2H33.5833V0ZM25.4167 2H26.4167V0H25.4167V2ZM17.25 0H16.25V2H17.25V0ZM9.08333 2H10.0833V0H9.08333V2ZM3.0858 0.379795L2.16207 0.762848L2.92818 2.6103L3.8519 2.22725L3.0858 0.379795ZM2.22725 3.8519L2.6103 2.92817L0.76285 2.16207L0.379796 3.08579L2.22725 3.8519ZM0 8.95812V9.95812H2V8.95812H0ZM2 16.8744V15.8744H0V16.8744H2ZM0 24.7906V25.7906H2V24.7906H0ZM2 32.7069V31.7069H0V32.7069H2ZM0 40.6231V41.6231H2V40.6231H0ZM2 48.5394V47.5394H0V48.5394H2ZM0 56.4557V57.4557H2V56.4557H0ZM2 64.3719V63.3719H0V64.3719H2ZM0 72.2469V73.2469H2V72.2469H0ZM2 80.0807V79.0807H0V80.0807H2ZM0 87.9144V88.9144H2V87.9144H0ZM2 95.7482V94.7482H0V95.7482H2ZM0 103.582V104.582H2V103.582H0ZM2 111.416V110.416H0V111.416H2ZM0 119.249V120.249H2V119.249H0ZM2 127.083V126.083H0V127.083H2ZM0.379796 132.914L0.76285 133.838L2.6103 133.072L2.22725 132.148L0.379796 132.914ZM3.8519 133.773L2.92818 133.39L2.16207 135.237L3.08579 135.62L3.8519 133.773ZM9.08333 136H10.0833V134H9.08333V136ZM17.25 134H16.25V136H17.25V134ZM25.4167 136H26.4167V134H25.4167V136ZM33.5833 134H32.5833V136H33.5833V134ZM41.75 136H42.75V134H41.75V136ZM49.9167 134H48.9167V136H49.9167V134ZM54 0H49.9167V2H54V0ZM41.75 0H33.5833V2H41.75V0ZM25.4167 0H17.25V2H25.4167V0ZM9.08333 0H5V2H9.08333V0ZM5 0C4.32389 0 3.67672 0.134749 3.0858 0.379795L3.8519 2.22725C4.20424 2.08114 4.59138 2 5 2V0ZM0.379796 3.08579C0.134749 3.67672 0 4.32388 0 5H2C2 4.59138 2.08114 4.20424 2.22725 3.8519L0.379796 3.08579ZM0 5V8.95812H2V5H0ZM0 16.8744V24.7906H2V16.8744H0ZM0 32.7069V40.6231H2V32.7069H0ZM0 48.5394V56.4557H2V48.5394H0ZM0 64.3719V68.33H2V64.3719H0ZM0 68.33V72.2469H2V68.33H0ZM0 80.0807V87.9144H2V80.0807H0ZM0 95.7482V103.582H2V95.7482H0ZM0 111.416V119.249H2V111.416H0ZM0 127.083V131H2V127.083H0ZM0 131C0 131.676 0.134749 132.323 0.379796 132.914L2.22725 132.148C2.08114 131.796 2 131.409 2 131H0ZM3.08579 135.62C3.67672 135.865 4.32388 136 5 136V134C4.59138 134 4.20424 133.919 3.8519 133.773L3.08579 135.62ZM5 136H9.08333V134H5V136ZM17.25 136H25.4167V134H17.25V136ZM33.5833 136H41.75V134H33.5833V136ZM49.9167 136H54V134H49.9167V136Z" fill="url(#paint0_linear_340_403)"/>
<defs>
<linearGradient id="paint0_linear_340_403" x1="27.5" y1="1" x2="27.5" y2="135" gradientUnits="userSpaceOnUse">
<stop stop-color="#DC47CD"/>
<stop offset="1" stop-color="#FA7D09"/>
</linearGradient>
</defs>
</svg>
