<svg width="23" height="28" viewBox="0 0 23 28" fill="none" xmlns="http://www.w3.org/2000/svg">
<path d="M22.6998 3.79998C22.6998 2.81918 22.111 2.14238 21.3494 1.71518C20.6166 1.30398 19.6374 1.06238 18.5686 0.908776C16.4278 0.599976 13.5846 0.599976 10.751 0.599976H10.6998C10.4876 0.599976 10.2841 0.684261 10.1341 0.83429C9.98409 0.984319 9.89981 1.1878 9.89981 1.39998C9.89981 1.61215 9.98409 1.81563 10.1341 1.96566C10.2841 2.11569 10.4876 2.19998 10.6998 2.19998C13.5942 2.19998 16.327 2.20158 18.3398 2.49118C19.3526 2.63838 20.095 2.84638 20.5654 3.11038C21.007 3.35838 21.0998 3.58078 21.0998 3.79998C21.0998 4.03998 20.999 4.26078 20.5974 4.49918C20.1622 4.75838 19.471 4.96318 18.5286 5.10878C16.6518 5.39678 14.1222 5.39998 11.4998 5.39998H11.4486C8.88701 5.39998 6.23901 5.39997 4.2278 5.70878C3.2214 5.86398 2.287 6.10878 1.5846 6.52478C0.848605 6.96158 0.299805 7.63838 0.299805 8.59998C0.299805 9.86718 1.3334 10.6272 2.415 11.04C3.5414 11.4688 5.05021 11.6688 6.69981 11.6688V10.0688C5.14781 10.0688 3.85821 9.87678 2.9846 9.54397C2.0662 9.19518 1.8998 8.82078 1.8998 8.59998C1.8998 8.35998 2.00061 8.13918 2.4022 7.90078C2.83741 7.64158 3.5286 7.43678 4.471 7.29118C6.34781 7.00318 8.87741 6.99998 11.4998 6.99998H11.551C14.1126 6.99998 16.7606 6.99998 18.7718 6.69118C19.7782 6.53598 20.7126 6.29117 21.415 5.87517C22.151 5.43837 22.6998 4.76158 22.6998 3.79998ZM10.6998 8.59838C10.0633 8.59838 9.45284 8.85123 9.00275 9.30132C8.55266 9.75141 8.29981 10.3619 8.29981 10.9984V17.7856L6.14781 16.8576C5.74856 16.6857 5.31763 16.5998 4.88301 16.6054C4.4484 16.6109 4.0198 16.7078 3.62508 16.8898C3.23035 17.0718 2.87831 17.3347 2.59183 17.6616C2.30535 17.9885 2.09083 18.372 1.9622 18.7872C1.87065 19.0824 1.88116 19.3998 1.99204 19.6884C2.10292 19.9769 2.30771 20.2196 2.5734 20.3776L8.9206 24.1456C9.64256 24.5198 10.2199 25.1231 10.5622 25.8608C10.8342 26.4256 11.2662 26.9504 11.8006 27.312C12.3414 27.6768 13.031 27.9008 13.7718 27.7584L16.9718 27.1424C17.4212 27.0559 17.8364 26.8428 18.1687 26.5281C18.5009 26.2135 18.7363 25.8104 18.847 25.3664L20.1782 20.0432C20.3094 19.5187 20.3329 18.973 20.2472 18.4392C20.1616 17.9054 19.9687 17.3945 19.68 16.9373C19.3914 16.4801 19.0131 16.0862 18.568 15.7794C18.1229 15.4725 17.6201 15.2591 17.0902 15.152L13.0998 14.3456V10.9984C13.0998 10.3619 12.8469 9.75141 12.3969 9.30132C11.9468 8.85123 11.3363 8.59838 10.6998 8.59838Z" fill="white"/>
</svg>
