<svg width="141" height="236" viewBox="0 0 141 236" fill="none" xmlns="http://www.w3.org/2000/svg">
<path fill-rule="evenodd" clip-rule="evenodd" d="M84.0005 103.785C81.9741 105.811 79.8222 107.27 77.5364 108.17C75.2485 109.069 72.6462 109.518 69.7192 109.518C64.2439 109.518 59.5613 107.516 55.6631 103.504C51.7649 99.4954 49.8153 94.792 49.8153 89.3894C49.8153 85.3438 51.1268 81.482 53.7498 77.8089L54.8735 76.4611C58.3224 71.8885 63.2717 69.6006 69.7192 69.6006C75.3408 69.6006 80.1199 71.5897 84.0576 75.5626C87.9931 79.5344 89.9624 84.1849 89.9624 89.5056C89.9624 95.0525 87.9724 99.8129 84.0005 103.785V103.785ZM133.821 123.701C133.821 117.988 134.721 112.014 136.523 105.775L138.995 97.3206C133.222 103.822 126.23 108.717 118.021 112.002C109.811 115.292 100.195 116.934 89.1749 116.934C98.5453 110.029 103.231 100.83 103.231 89.3396C103.231 80.1777 99.9139 72.3326 93.2765 65.7989C86.6411 59.2694 78.7908 56 69.7192 56C58.6991 56 49.889 60.3931 43.2931 69.1783L42.6197 70.0779L42.2846 70.5272C38.3075 76.3864 36.3226 82.7696 36.3226 89.6757C36.3226 101.465 41.7201 110.699 52.5161 117.38C36.8456 119.635 24.7754 123.808 16.3035 129.892C10.6809 133.35 6.55751 136.921 3.93555 140.601C1.3115 144.288 0 148.158 0 152.215C0 158 1.49931 162.289 4.5031 165.067C7.5069 167.85 11.8627 169.238 17.5714 169.238C25.9074 167.425 30.0753 163.802 30.0753 158.363C29.9219 157.676 29.7897 156.984 29.679 156.289C29.5648 155.58 29.4341 155.003 29.2868 154.555C26.7239 150.222 23.5614 148.057 19.7981 148.057C19.272 148.13 18.5769 148.244 17.7105 148.391C16.8915 148.532 16.0813 148.718 15.2836 148.951C11.8917 150.373 10.2005 152.465 10.2005 155.227C10.2005 158.293 11.3325 160.164 13.5954 160.834C14.577 161.209 15.4797 161.393 16.3087 161.393H17.2124C17.5891 161.393 18.3081 161.209 19.3654 160.834L20.7226 159.718C21.5526 158.603 21.9687 157.3 21.9687 155.812C21.9687 154.471 21.5807 153.282 20.8045 152.24C22.9378 152.829 24.3717 153.968 25.1074 155.657C25.1074 158.693 24.5274 160.932 23.3705 162.371C22.2146 163.814 20.2577 164.533 17.4988 164.533C9.66922 164.533 5.75546 161.144 5.75546 154.366V152.331C5.75546 148.039 7.75799 144.179 11.7703 140.75C15.7785 137.326 21.5692 134.33 29.1446 131.768C32.6672 130.187 39.4136 128.945 49.3837 128.037C54.0813 127.428 58.8138 127.126 63.5508 127.134V153.286H55.8239L51.5211 148.902V170.285L56.1549 165.578H63.5508V197.118L53.5309 189.924L70.2359 222.261L86.7044 189.898L76.89 197.222V165.578H83.0937L88.1685 170.751V148.841L83.7712 153.285H76.891L76.808 127.133C80.5547 127.191 84.4747 127.252 88.5596 127.309C92.6467 127.366 96.9371 127.395 101.436 127.395C109.532 127.395 116.821 129.172 123.306 132.727C129.791 136.283 135.396 141.395 140.12 148.056H140.795C136.141 141.142 133.821 133.027 133.821 123.701V123.701Z" fill="white"/>
<path d="M103 1L10 235" stroke="#FA1709" stroke-width="3"/>
</svg>
