<svg width="43" height="50" viewBox="0 0 43 50" fill="none" xmlns="http://www.w3.org/2000/svg">
<path fill-rule="evenodd" clip-rule="evenodd" d="M25.2616 14.3704C24.6522 14.9798 24.0051 15.4185 23.3177 15.6891C22.6296 15.9596 21.8471 16.0947 20.9668 16.0947C19.3202 16.0947 17.912 15.4925 16.7397 14.2858C15.5674 13.0805 14.9811 11.666 14.9811 10.0413C14.9811 8.82463 15.3755 7.66324 16.1643 6.55864L16.5022 6.15331C17.5394 4.77818 19.0278 4.09014 20.9668 4.09014C22.6574 4.09014 24.0946 4.68831 25.2788 5.88309C26.4623 7.07755 27.0546 8.47609 27.0546 10.0762C27.0546 11.7443 26.4561 13.1759 25.2616 14.3704ZM40.2443 20.3599C40.2443 18.6418 40.5148 16.8451 41.0568 14.9689L41.8004 12.4264C40.0642 14.3816 37.9614 15.8538 35.4926 16.8417C33.0238 17.8309 30.1319 18.3248 26.8178 18.3248C29.6357 16.2482 31.0449 13.4817 31.0449 10.0263C31.0449 7.27101 30.0473 4.91173 28.0512 2.94685C26.0558 0.983219 23.6949 0 20.9668 0C17.6527 0 15.0032 1.32115 13.0196 3.96314L12.8171 4.23368L12.7163 4.36879C11.5203 6.13084 10.9234 8.05048 10.9234 10.1274C10.9234 13.6727 12.5466 16.4498 15.7933 18.459C11.0806 19.137 7.45075 20.392 4.90299 22.2218C3.21208 23.2615 1.97205 24.3355 1.18354 25.4423C0.394411 26.551 0 27.7148 0 28.9349C0 30.6748 0.45089 31.9644 1.35423 32.8001C2.25757 33.6369 3.56748 34.0544 5.28429 34.0544C7.79117 33.509 9.04461 32.4194 9.04461 30.7837C8.99847 30.5772 8.95872 30.3693 8.92542 30.1603C8.89109 29.9468 8.85178 29.7733 8.80747 29.6385C8.03675 28.3355 7.08567 27.6846 5.95392 27.6846C5.79572 27.7064 5.58666 27.7407 5.32611 27.7851C5.07983 27.8272 4.83615 27.8834 4.59626 27.9532C3.57622 28.381 3.06761 29.0101 3.06761 29.8407C3.06761 30.7628 3.40803 31.3254 4.08858 31.527C4.38376 31.6396 4.65523 31.6952 4.90455 31.6952H5.17633C5.2896 31.6952 5.50584 31.6396 5.8238 31.527L6.23194 31.1912C6.48157 30.8561 6.60669 30.4642 6.60669 30.0167C6.60669 29.6133 6.48999 29.2557 6.25659 28.9424C6.89813 29.1196 7.32936 29.4622 7.5506 29.9699C7.5506 30.8829 7.37617 31.5563 7.02825 31.9891C6.68065 32.4231 6.09215 32.6394 5.26245 32.6394C2.90784 32.6394 1.73085 31.6203 1.73085 29.5817V28.9698C1.73085 27.679 2.33308 26.5182 3.53971 25.4869C4.7451 24.4572 6.48656 23.5564 8.76472 22.786C9.82407 22.3104 11.8529 21.9369 14.8513 21.6639C16.264 21.4806 17.6872 21.3899 19.1118 21.3924V29.2569H16.788L15.494 27.9386V34.3693L16.8876 32.9536H19.1118V42.4388L16.0985 40.2752L21.1222 50L26.0748 40.2673L23.1233 42.47V32.9536H24.9889L26.5151 34.5094V27.9202L25.1927 29.2566H23.1236L23.0986 21.3921C24.2254 21.4093 25.4042 21.4277 26.6327 21.4448C27.8618 21.462 29.1521 21.4707 30.5051 21.4707C32.9399 21.4707 35.1319 22.0053 37.0821 23.0743C39.0323 24.1436 40.7179 25.681 42.1386 27.6843H42.3414C40.942 25.6049 40.2443 23.1645 40.2443 20.3599Z" fill="white"/>
</svg>
