<svg width="23" height="16" viewBox="0 0 23 16" fill="none" xmlns="http://www.w3.org/2000/svg">
<path d="M1.6 0H9.6C10.0243 0 10.4313 0.168571 10.7314 0.468629C11.0314 0.768687 11.2 1.17565 11.2 1.6C11.2 2.02435 11.0314 2.43131 10.7314 2.73137C10.4313 3.03143 10.0243 3.2 9.6 3.2H1.6C1.17565 3.2 0.768687 3.03143 0.468629 2.73137C0.168571 2.43131 0 2.02435 0 1.6C0 1.17565 0.168571 0.768687 0.468629 0.468629C0.768687 0.168571 1.17565 0 1.6 0V0ZM12.8 12.8H20.8C21.2243 12.8 21.6313 12.9686 21.9314 13.2686C22.2314 13.5687 22.4 13.9757 22.4 14.4C22.4 14.8243 22.2314 15.2313 21.9314 15.5314C21.6313 15.8314 21.2243 16 20.8 16H12.8C12.3757 16 11.9687 15.8314 11.6686 15.5314C11.3686 15.2313 11.2 14.8243 11.2 14.4C11.2 13.9757 11.3686 13.5687 11.6686 13.2686C11.9687 12.9686 12.3757 12.8 12.8 12.8ZM1.6 6.4H20.8C21.2243 6.4 21.6313 6.56857 21.9314 6.86863C22.2314 7.16869 22.4 7.57565 22.4 8C22.4 8.42435 22.2314 8.83131 21.9314 9.13137C21.6313 9.43143 21.2243 9.6 20.8 9.6H1.6C1.17565 9.6 0.768687 9.43143 0.468629 9.13137C0.168571 8.83131 0 8.42435 0 8C0 7.57565 0.168571 7.16869 0.468629 6.86863C0.768687 6.56857 1.17565 6.4 1.6 6.4Z" fill="white"/>
</svg>
